<?xml version="1.0" encoding="utf-8"?>
<!-- Generator: Adobe Illustrator 21.0.2, SVG Export Plug-In . SVG Version: 6.00 Build 0)  -->
<svg version="1.1"
	 id="svg10" xmlns:cc="http://creativecommons.org/ns#" xmlns:dc="http://purl.org/dc/elements/1.1/" xmlns:rdf="http://www.w3.org/1999/02/22-rdf-syntax-ns#" xmlns:svg="http://www.w3.org/2000/svg"
	 xmlns="http://www.w3.org/2000/svg" xmlns:xlink="http://www.w3.org/1999/xlink" x="0px" y="0px" viewBox="0 0 45.9 28.3"
	 style="enable-background:new 0 0 45.9 28.3;" xml:space="preserve">
<style type="text/css">
	.st0{fill:#3A393E;}
</style>
<path id="path12" class="st0" d="M13.5,0c1.3,0,2.5,0.1,3.6,0.4c1.1,0.2,2,0.6,2.8,1.1s1.4,1.2,1.8,2.1s0.6,2,0.6,3.2
	c0,1.4-0.3,2.6-1,3.5c-0.6,0.9-1.6,1.7-2.8,2.3c1.7,0.5,3,1.4,3.8,2.6c0.8,1.2,1.3,2.7,1.3,4.4c0,1.4-0.3,2.6-0.8,3.6
	s-1.3,1.9-2.2,2.5c-0.9,0.6-2,1.1-3.2,1.4c-1.2,0.3-2.4,0.5-3.6,0.5l-13.4,0V0H13.5z M12.7,11.2c1.1,0,2-0.3,2.7-0.8
	c0.7-0.5,1-1.4,1-2.5c0-0.6-0.1-1.2-0.3-1.6c-0.2-0.4-0.5-0.7-0.9-1c-0.4-0.2-0.8-0.4-1.3-0.5s-1-0.1-1.6-0.1H6.5v6.5
	C6.5,11.2,12.7,11.2,12.7,11.2z M13,23c0.6,0,1.2-0.1,1.7-0.2c0.5-0.1,1-0.3,1.4-0.6c0.4-0.3,0.7-0.6,1-1.1c0.2-0.5,0.4-1.1,0.4-1.8
	c0-1.4-0.4-2.4-1.2-3.1c-0.8-0.6-1.9-0.9-3.2-0.9H6.5V23H13z"/>
<g>
	<path id="path14" class="st0" d="M32.3,22.9c0.8,0.8,2,1.2,3.6,1.2c1.1,0,2.1-0.3,2.9-0.8c0.8-0.6,1.3-1.2,1.5-1.8h4.9
		c-0.8,2.4-2,4.1-3.6,5.2c-1.6,1-3.5,1.6-5.8,1.6c-1.6,0-3-0.3-4.3-0.8c-1.3-0.5-2.3-1.2-3.2-2.2c-0.9-0.9-1.6-2-2-3.3
		c-0.5-1.3-0.7-2.7-0.7-4.3c0-1.5,0.2-2.9,0.7-4.2s1.2-2.4,2.1-3.4c0.9-0.9,2-1.7,3.2-2.2c1.3-0.5,2.6-0.8,4.2-0.8
		c1.7,0,3.2,0.3,4.5,1s2.3,1.5,3.1,2.7c0.8,1.1,1.4,2.4,1.8,3.8c0.2,1.4,0.3,2.8,0.2,4.4H30.9C30.9,20.6,31.5,22.1,32.3,22.9z
		 M38.6,12.4c-0.7-0.7-1.8-1.1-3.1-1.1c-0.9,0-1.6,0.2-2.2,0.5c-0.6,0.3-1,0.7-1.4,1.1c-0.4,0.4-0.6,0.9-0.7,1.4S31,15.2,31,15.6h9
		C39.8,14.1,39.3,13.1,38.6,12.4z"/>
	<rect id="rect24" x="29.8" y="1.9" class="st0" width="11.2" height="2.7"/>
</g>
</svg>
