<?xml version="1.0" encoding="utf-8"?>
<!-- Generator: Adobe Illustrator 21.0.2, SVG Export Plug-In . SVG Version: 6.00 Build 0)  -->
<svg version="1.1"
	 id="svg3070" inkscape:version="0.48.0 r9654" sodipodi:docname="New document 4" xmlns:cc="http://creativecommons.org/ns#" xmlns:dc="http://purl.org/dc/elements/1.1/" xmlns:inkscape="http://www.inkscape.org/namespaces/inkscape" xmlns:rdf="http://www.w3.org/1999/02/22-rdf-syntax-ns#" xmlns:sodipodi="http://sodipodi.sourceforge.net/DTD/sodipodi-0.dtd" xmlns:svg="http://www.w3.org/2000/svg"
	 xmlns="http://www.w3.org/2000/svg" xmlns:xlink="http://www.w3.org/1999/xlink" x="0px" y="0px" viewBox="0 0 79.5 79.5"
	 style="enable-background:new 0 0 79.5 79.5;" xml:space="preserve">
<style type="text/css">
	.st0{fill:#3A393E;}
	.st1{fill:#FFFFFF;}
</style>
<sodipodi:namedview  bordercolor="#666666" borderopacity="1.0" fit-margin-bottom="0" fit-margin-left="0" fit-margin-right="0" fit-margin-top="0" id="base" inkscape:current-layer="layer1" inkscape:cx="142.93233" inkscape:cy="33.703355" inkscape:document-units="px" inkscape:pageopacity="0.0" inkscape:pageshadow="2" inkscape:window-height="750" inkscape:window-maximized="1" inkscape:window-width="1280" inkscape:window-x="-8" inkscape:window-y="-8" inkscape:zoom="2.8" pagecolor="#ffffff" showgrid="false">
	</sodipodi:namedview>
<g>
	<path class="st0" d="M72,1.6H7.4c-3.1,0-5.6,2.4-5.6,5.5v65.3c0,3,2.5,5.5,5.6,5.5H72c3.1,0,5.6-2.4,5.6-5.5V7.1
		C77.6,4.1,75.1,1.6,72,1.6z M24.8,65.4H13.4V31h11.4V65.4z M19.1,26.3L19.1,26.3L19.1,26.3c-3.9,0-6.4-2.6-6.4-5.9
		c0-3.4,2.6-5.9,6.5-5.9c3.9,0,6.3,2.6,6.4,5.9C25.6,23.7,23.1,26.3,19.1,26.3z M66.1,65.4H54.6V47c0-4.6-1.7-7.8-5.8-7.8
		c-3.2,0-5,2.1-5.9,4.2c-0.3,0.7-0.4,1.8-0.4,2.8v19.2H31.1h0h0c0,0,0.2-31.2,0-34.4h11.4v4.9c1.5-2.3,4.2-5.7,10.3-5.7
		c7.5,0,13.2,4.9,13.2,15.5V65.4z"/>
	<path class="st1" d="M42.6,36v-0.1C42.6,35.9,42.5,36,42.6,36L42.6,36z"/>
</g>
</svg>
